<svg width="546" height="546" viewBox="0 0 546 546" fill="none" xmlns="http://www.w3.org/2000/svg">
<g clip-path="url(#clip0_2270_590)">
<path d="M348.359 143.175C352.793 142.274 356.53 146.802 359.571 156.759C361.091 161.737 363.571 174.36 367.012 194.626C370.305 213.123 372.858 234.34 374.672 258.277C376.043 276.907 377.605 292.304 379.357 304.469C380.982 316.218 384.148 330.445 388.856 347.149C397.659 379.838 411.88 405.202 431.517 423.244C444.106 434.343 457.248 440.538 470.941 441.832C441.794 490.142 397.659 525.971 343.1 539.872C326.439 544.117 309.653 546.101 292.986 545.999C306.622 533.571 311.836 516.294 306.772 496.709C273.685 448.758 246.395 406.294 224.901 369.316C203.639 331.815 185.681 294.211 171.029 256.506C164.378 238.581 162.12 224.756 164.253 215.034C166.26 204.897 172.649 198.184 183.419 194.896C191.676 192.375 200.039 192.77 208.506 196.08C217.206 198.866 223.161 206.8 226.369 219.88L235.742 254.435C238.17 263.671 241.801 276.85 246.636 293.969C251.47 311.088 256.041 326.7 260.348 340.806C266.428 360.719 271.421 376.429 275.326 387.936C287.445 425.054 301.191 450.791 316.563 465.146C331.935 479.502 348.057 484.104 364.93 478.952C383.239 473.362 393.841 463.095 396.736 448.151C399.63 433.208 396.833 411.838 388.346 384.042C383.659 368.692 377.928 351.847 371.151 333.507C365.767 319.73 358.588 302.646 349.614 282.255C348.369 279.46 345.878 273.871 342.141 265.488C338.636 256.58 335.68 248.185 333.274 240.303C330.614 231.591 328.048 221.262 325.578 209.317C321.821 191.87 321.716 177.388 325.265 165.873C328.687 153.943 334.706 146.663 343.322 144.032L348.359 143.175ZM52.2737 165.813C51.349 177.51 51.287 190.365 52.0901 204.38C55.7172 267.675 70.0709 340.396 95.1516 422.539C96.6462 427.434 98.1583 432.301 99.6848 437.142C77.676 406.436 60.5577 370.33 50.3498 330.268C35.7385 272.923 37.4356 215.921 52.2737 165.813ZM207.103 6.13086C248.369 -4.38362 290.402 -1.03134 329.511 13.5459L325.087 14.8975C305.701 20.8166 292.607 33.2049 285.806 52.0625C279.005 70.9201 278.095 93.6485 283.076 120.247C287.889 143.722 293.463 165.832 299.796 186.575C302.71 196.117 306.679 207.832 311.703 221.718C319.135 243.486 322.523 260.366 321.867 272.358C321.571 284.241 316.397 291.717 306.345 294.786C295.575 298.075 285.397 293.019 275.811 279.618C266.225 266.218 254.686 239.353 241.196 199.025C222.68 144.811 203.307 109 183.078 91.5918C163.082 73.6597 140.877 68.4204 116.465 75.874C111.798 77.299 104.333 80.4858 94.0696 85.4336C92.7658 86.0935 91.4921 86.7938 90.2483 87.5342C119.016 47.6754 159.011 18.3848 207.103 6.13086ZM412.671 65.7031C452.946 103.232 484.359 154.926 499.853 215.735C502.264 225.199 504.23 234.653 505.767 244.068C502.768 245.627 498.939 247.262 494.28 248.97C487.227 251.577 481.124 253.44 475.972 254.56C465.181 256.494 455.615 252.158 447.275 241.552C438.934 230.946 431.977 216.516 426.404 198.262C420.83 180.008 417.157 160.266 415.385 139.037C413.655 111.038 412.751 86.5929 412.671 65.7031Z" fill="#A5F54A"/>
</g>
<defs>
<clipPath id="clip0_2270_590">
<rect width="546" height="546" fill="white"/>
</clipPath>
</defs>
</svg>
