<svg width="400" height="400" viewBox="0 0 400 400" fill="none" xmlns="http://www.w3.org/2000/svg">
<path d="M325.785 251.903C329.482 255.082 325.354 260.855 321.149 258.384L219.836 198.826C217.084 197.208 213.638 199.308 213.815 202.496L222.594 361.014C222.857 365.777 216.063 366.921 214.754 362.334L179.838 240.066C179.097 237.472 176.054 236.34 173.799 237.819L86.4566 295.083C82.5775 297.626 78.2045 292.635 81.2357 289.124L171.655 184.393C173.712 182.01 172.338 178.295 169.226 177.824L45.894 159.16C41.1669 158.445 41.4506 151.539 46.2205 151.214L142.571 144.646C145.238 144.465 146.98 141.768 146.048 139.262L110.95 44.8485C109.307 40.4294 115.326 37.3038 117.996 41.1898L199.383 159.665C201.227 162.35 205.335 161.823 206.442 158.76L250.291 37.4094C251.939 32.8496 258.759 34.6023 258.005 39.3915L243.805 129.474C243.389 132.115 245.631 134.413 248.281 134.062L352.967 120.214C357.54 119.609 359.336 125.948 355.124 127.831L246.66 176.34C243.983 177.538 243.462 181.113 245.685 183.025L325.785 251.903Z" fill="#A5F54A"/>
</svg>
